<?xml version="1.0" encoding="UTF-8" standalone="no"?>
<svg xmlns="http://www.w3.org/2000/svg" width="200" height="60" viewBox="0 0 200 60" fill="none">
  <g>
    <path d="M37.5 10C24.5 10 15 20.5 15 32.5C15 44.5 37.5 57.5 37.5 57.5C37.5 57.5 60 44.5 60 32.5C60 20.5 50.5 10 37.5 10Z" fill="#5C66F5"/>
    <circle cx="37.5" cy="31.5" r="7.5" fill="white"/>
    <path d="M68.5 44V16H72.5V40.4H86.7V44H68.5Z" fill="white"/>
    <path d="M97.8 44.4C95.2667 44.4 93.1333 43.8 91.4 42.6C89.6667 41.4 88.3333 39.7 87.4 37.5C86.4667 35.3 86 32.7667 86 29.9C86 27.0333 86.4667 24.5 87.4 22.3C88.3333 20.1 89.6667 18.4 91.4 17.2C93.1333 16 95.2667 15.4 97.8 15.4C100.333 15.4 102.467 16 104.2 17.2C105.933 18.4 107.267 20.1 108.2 22.3C109.133 24.5 109.6 27.0333 109.6 29.9C109.6 32.7667 109.133 35.3 108.2 37.5C107.267 39.7 105.933 41.4 104.2 42.6C102.467 43.8 100.333 44.4 97.8 44.4ZM97.8 40.8C99.2667 40.8 100.5 40.4 101.5 39.6C102.5 38.8 103.267 37.6667 103.8 36.2C104.333 34.7333 104.6 32.9667 104.6 30.9C104.6 28.8333 104.333 27.0667 103.8 25.6C103.267 24.1333 102.5 23 101.5 22.2C100.5 21.4 99.2667 21 97.8 21C96.3333 21 95.1 21.4 94.1 22.2C93.1 23 92.3333 24.1333 91.8 25.6C91.2667 27.0667 91 28.8333 91 30.9C91 32.9667 91.2667 34.7333 91.8 36.2C92.3333 37.6667 93.1 38.8 94.1 39.6C95.1 40.4 96.3333 40.8 97.8 40.8Z" fill="white"/>
    <path d="M122.9 44.4C119.967 44.4 117.567 43.6667 115.7 42.2C113.833 40.7333 112.9 38.2 112.9 34.6V16H116.9V34.4C116.9 36.5333 117.4 38.1333 118.4 39.2C119.4 40.2667 120.867 40.8 122.8 40.8C124.8 40.8 126.3 40.2667 127.3 39.2C128.3 38.1333 128.8 36.5333 128.8 34.4V16H132.8V34.6C132.8 38.2 131.867 40.7333 130 42.2C128.133 43.6667 125.833 44.4 122.9 44.4Z" fill="white"/>
    <path d="M147.8 44.4C145.267 44.4 143.133 43.8 141.4 42.6C139.667 41.4 138.333 39.7 137.4 37.5C136.467 35.3 136 32.7667 136 29.9C136 27.0333 136.467 24.5 137.4 22.3C138.333 20.1 139.667 18.4 141.4 17.2C143.133 16 145.267 15.4 147.8 15.4C150.333 15.4 152.467 16 154.2 17.2C155.933 18.4 157.267 20.1 158.2 22.3C159.133 24.5 159.6 27.0333 159.6 29.9C159.6 32.7667 159.133 35.3 158.2 37.5C157.267 39.7 155.933 41.4 154.2 42.6C152.467 43.8 150.333 44.4 147.8 44.4ZM147.8 40.8C149.267 40.8 150.5 40.4 151.5 39.6C152.5 38.8 153.267 37.6667 153.8 36.2C154.333 34.7333 154.6 32.9667 154.6 30.9C154.6 28.8333 154.333 27.0667 153.8 25.6C153.267 24.1333 152.5 23 151.5 22.2C150.5 21.4 149.267 21 147.8 21C146.333 21 145.1 21.4 144.1 22.2C143.1 23 142.333 24.1333 141.8 25.6C141.267 27.0667 141 28.8333 141 30.9C141 32.9667 141.267 34.7333 141.8 36.2C142.333 37.6667 143.1 38.8 144.1 39.6C145.1 40.4 146.333 40.8 147.8 40.8Z" fill="white"/>
    <path d="M163.3 44V39.8L178.5 19.6H163.7V16H183.7V20.2L168.5 40.4H184.1V44H163.3Z" fill="white"/>
    <path d="M186.6 44V16H190.6V34.8L202.8 16H206.4V44H202.4V25.2L190.2 44H186.6Z" fill="white"/>
  </g>
</svg>