<svg width="120" height="30" viewBox="0 0 120 30" xmlns="http://www.w3.org/2000/svg">
  <!-- Fundo do logo -->
  <rect width="30" height="30" rx="6" fill="#3498DB"/>
  
  <!-- Ícone de mapa/localização estilizado -->
  <path d="M15,5 C10.5817,5 7,8.5817 7,13 C7,15.3861 7.62343,16.7818 8.8965,18.6234 C9.4898,19.4985 14.0289,25.88 14.4947,26.5 C14.7809,26.8686 15.2191,26.8686 15.5053,26.5 C15.9711,25.88 20.5102,19.4985 21.1035,18.6234 C22.3766,16.7818 23,15.3861 23,13 C23,8.5817 19.4183,5 15,5 Z M15,17 C12.7909,17 11,15.2091 11,13 C11,10.7909 12.7909,9 15,9 C17.2091,9 19,10.7909 19,13 C19,15.2091 17.2091,17 15,17 Z" fill="#FFFFFF"/>
  
  <!-- Nome Viajey -->
  <text x="38" y="21" font-family="Arial, sans-serif" font-size="16" font-weight="bold" fill="#FFFFFF">Viajey</text>
</svg>