<svg width="300" height="200" viewBox="0 0 300 200" xmlns="http://www.w3.org/2000/svg">
  <rect width="300" height="200" fill="#2C3E50"/>
  <g transform="translate(125, 85)">
    <path d="M37.7,0c-5.5,0-9.9,4.5-9.9,9.9c0,5.5,4.5,9.9,9.9,9.9c5.5,0,9.9-4.5,9.9-9.9C47.6,4.5,43.2,0,37.7,0z M54.3,9.9 c0,5.9-3.2,11-7.9,13.8l15.8,15.8H14.1L29.9,23.7c-4.6-2.8-7.7-7.9-7.7-13.8c0-9,7.3-16.3,16.3-16.3S54.8,0.9,54.3,9.9z" fill="#6C7A89"/>
    <path d="M-41.3,20h13.5v13.7c0,2,1.7,3.7,3.7,3.7c2,0,3.7-1.7,3.7-3.7V20h13.5c2,0,3.7-1.7,3.7-3.7c0-2-1.7-3.7-3.7-3.7h-13.5 v-13.7c0-2-1.7-3.7-3.7-3.7c-2,0-3.7,1.7-3.7,3.7v13.7h-13.5c-2,0-3.7,1.7-3.7,3.7C-45,18.3-43.3,20-41.3,20z" fill="#6C7A89"/>
  </g>
  <text x="150" y="155" font-family="Arial" font-size="16" fill="#ECF0F1" text-anchor="middle">Imagem não disponível</text>
</svg>